<?xml version="1.0" encoding="UTF-8" standalone="no"?>
<!-- Created with Inkscape (http://www.inkscape.org/) -->

<svg
   width="16"
   height="16"
   viewBox="0 0 16 16"
   version="1.1"
   id="svg1"
   sodipodi:docname="NewLogo.svg"
   inkscape:version="1.3.2 (091e20e, 2023-11-25)"
   xmlns:inkscape="http://www.inkscape.org/namespaces/inkscape"
   xmlns:sodipodi="http://sodipodi.sourceforge.net/DTD/sodipodi-0.dtd"
   xmlns="http://www.w3.org/2000/svg"
   xmlns:svg="http://www.w3.org/2000/svg">
  <sodipodi:namedview
     id="namedview1"
     pagecolor="#ffffff"
     bordercolor="#000000"
     borderopacity="0.25"
     inkscape:showpageshadow="2"
     inkscape:pageopacity="0.0"
     inkscape:pagecheckerboard="0"
     inkscape:deskcolor="#d1d1d1"
     inkscape:document-units="px"
     showgrid="true"
     inkscape:zoom="15.859244"
     inkscape:cx="4.539939"
     inkscape:cy="7.4089283"
     inkscape:window-width="1440"
     inkscape:window-height="776"
     inkscape:window-x="0"
     inkscape:window-y="25"
     inkscape:window-maximized="1"
     inkscape:current-layer="layer1">
    <inkscape:grid
       id="grid1"
       units="px"
       originx="0"
       originy="0"
       spacingx="1"
       spacingy="1"
       empcolor="#0099e5"
       empopacity="0.30196078"
       color="#0099e5"
       opacity="0.14901961"
       empspacing="5"
       dotted="false"
       gridanglex="30"
       gridanglez="30"
       visible="true" />
  </sodipodi:namedview>
  <defs
     id="defs1" />
  <g
     inkscape:label="Layer 1"
     inkscape:groupmode="layer"
     id="layer1">
    <path
       id="rect1"
       style="display:none;fill:#000000;fill-opacity:1;stroke-width:1.29148"
       d="M 0,0 V 8 A 8,8 0 0 0 -8,0 Z m -8,0 a 8,8 0 0 0 -8,8 V 0 Z m -8,8 a 8,8 0 0 0 8,8 h -8 z m 8,8 A 8,8 0 0 0 0,8 v 8 z"
       transform="scale(-1,1)"
       sodipodi:insensitive="true" />
    <g
       id="g3"
       style="display:none">
      <circle
         style="fill:#000000;fill-opacity:1;stroke-width:1.0797"
         id="path2"
         cx="8"
         cy="4.5"
         r="2.5" />
      <path
         id="path2-6"
         style="fill:#000000;fill-opacity:1;stroke-width:1.83231"
         d="M 8,7 A 4,4.5 0 0 0 4,11.5 4,2.5 0 0 0 8,14 4,2.5 0 0 0 12,11.5 4,4.5 0 0 0 8,7 Z" />
      <path
         style="font-weight:bold;font-size:8px;font-family:'Gill Sans';-inkscape-font-specification:'Gill Sans Bold';fill:#000000;fill-opacity:1;stroke-width:0.967228"
         d="M 3.7500001,11 H 3.3961539 q -0.5500001,0 -0.8807693,-0.111346 -0.326923,-0.111348 -0.4846154,-0.326618 -0.1538461,-0.215271 -0.2,-0.504771 -0.042308,-0.289503 -0.042308,-0.7757169 0,-0.4973487 -0.06923,-0.7608693 Q 1.6500001,8.2534465 1.4807693,8.1420998 1.3153845,8.030753 1,8.030753 V 6.9729587 q 0.2923076,0 0.4653847,-0.1002121 0.1730768,-0.1039236 0.2499999,-0.3414635 0.080769,-0.2375397 0.080769,-0.6532344 0,-0.5604453 0.030769,-0.8610816 Q 1.861538,4.7163309 2.0038459,4.4825026 2.1499998,4.2486746 2.4846151,4.126193 2.8192305,4 3.3961536,4 h 0.3538462 v 1.0355251 q -0.3461539,0 -0.4961539,0.048249 -0.1499997,0.04825 -0.2115382,0.2041363 -0.057692,0.1558855 -0.057692,0.4973489 0,0.4750795 -0.05,0.8091199 -0.05,0.3340403 -0.2038462,0.5715801 -0.1538461,0.2338281 -0.4384615,0.3377517 0.3038462,0.1484624 0.4461538,0.3229057 0.1423078,0.1707317 0.1923077,0.4453871 0.053846,0.2746553 0.053846,0.7757161 0,0.3266165 0.023076,0.4973483 0.026923,0.1744444 0.096154,0.2635211 0.073077,0.092792 0.2192307,0.1261934 0.1500001,0.033407 0.4269232,0.033407 z"
         id="text3"
         aria-label="{" />
      <path
         style="font-weight:bold;font-size:8px;font-family:'Gill Sans';-inkscape-font-specification:'Gill Sans Bold';fill:#000000;fill-opacity:1;stroke-width:0.967228"
         d="m 12.250004,11 h 0.353846 q 0.55,0 0.88077,-0.111346 0.326923,-0.111348 0.484615,-0.326618 0.153846,-0.215271 0.2,-0.504771 0.04231,-0.289503 0.04231,-0.7757169 0,-0.4973482 0.06923,-0.7608693 0.06923,-0.2672323 0.23846,-0.378579 Q 14.68462,8.030753 15.000004,8.030753 V 6.9729587 q -0.292307,0 -0.465385,-0.1002121 Q 14.361543,6.768823 14.28462,6.5312831 14.20385,6.2937434 14.20385,5.8780487 q 0,-0.5604453 -0.03077,-0.8610816 Q 14.138466,4.7163309 13.996158,4.4825026 13.850004,4.2486746 13.515389,4.126193 13.180774,4 12.603851,4 h -0.353847 v 1.0355251 q 0.346154,0 0.496154,0.048249 0.15,0.04825 0.211538,0.2041363 0.05769,0.1558855 0.05769,0.4973489 0,0.4750795 0.05,0.8091199 0.05,0.3340403 0.203847,0.5715801 0.153846,0.2338281 0.438461,0.3377517 -0.303846,0.1484624 -0.446154,0.3229057 -0.142307,0.1707317 -0.192307,0.4453871 -0.05385,0.2746552 -0.05385,0.7757161 0,0.3266165 -0.02308,0.4973483 -0.02692,0.1744444 -0.09615,0.2635211 -0.07308,0.092792 -0.21923,0.1261934 -0.15,0.033407 -0.426923,0.033407 z"
         id="text3-6"
         aria-label="{" />
    </g>
    <circle
       style="display:inline;fill:#4b78ff;fill-opacity:1;stroke:none;stroke-width:0.413413;stroke-dasharray:none;stroke-opacity:1"
       id="path3"
       cx="8"
       cy="8"
       r="8" />
    <path
       id="circle3"
       style="fill:#000000;fill-opacity:1;stroke-width:0.92197"
       d="M 8,3 A 2.1875,2.0833333 0 0 0 5.8125,5.0833333 2.1875,2.0833333 0 0 0 8,7.1666667 2.1875,2.0833333 0 0 0 10.1875,5.0833333 2.1875,2.0833333 0 0 0 8,3 Z M 8,7.1666667 A 3.5,3.75 0 0 0 4.5,10.916667 3.5,2.0833333 0 0 0 8,13 3.5,2.0833333 0 0 0 11.5,10.916667 3.5,3.75 0 0 0 8,7.1666667 Z" />
    <path
       style="font-weight:bold;font-size:8px;font-family:'Gill Sans';-inkscape-font-specification:'Gill Sans Bold';fill:#ffffff;fill-opacity:1;stroke-width:1.07999"
       d="M 4,12 H 3.613986 Q 3.0139859,12 2.6531468,11.872748 2.2965035,11.745492 2.1244755,11.499469 1.9566433,11.253445 1.9062936,10.922588 q -0.046154,-0.33086 -0.046154,-0.886533 0,-0.5683981 -0.075524,-0.869565 Q 1.709091,8.8610817 1.5244756,8.7338284 1.3440558,8.6065748 1,8.6065748 V 7.3976671 q 0.318881,0 0.5076924,-0.1145282 0.188811,-0.1187697 0.2727271,-0.390244 0.088112,-0.2714738 0.088112,-0.7465536 0,-0.6405089 0.033566,-0.9840932 Q 1.9398596,4.8186639 2.0951046,4.5514316 2.2545452,4.2841996 2.6195801,4.1442205 2.984615,4 3.6139857,4 h 0.386014 v 1.1834572 q -0.3776224,0 -0.5412588,0.055141 -0.163636,0.055143 -0.2307689,0.2332986 -0.062937,0.1781549 -0.062937,0.5683988 0,0.542948 -0.054545,0.9247084 -0.054545,0.3817604 -0.2223777,0.6532344 -0.1678321,0.2672321 -0.4783216,0.386002 0.3314686,0.1696713 0.4867132,0.3690351 0.1552449,0.1951219 0.2097902,0.5090138 0.058741,0.3138918 0.058741,0.8865334 0,0.3732763 0.025174,0.5683973 0.029371,0.199366 0.1048953,0.301168 0.07972,0.106048 0.2391608,0.144221 0.1636364,0.03818 0.4657343,0.03818 z"
       id="path5"
       aria-label="{" />
    <path
       style="font-weight:bold;font-size:8px;font-family:'Gill Sans';-inkscape-font-specification:'Gill Sans Bold';fill:#ffffff;fill-opacity:1;stroke-width:1.07999"
       d="m 12.000001,12 h 0.386014 q 0.599999,0 0.960838,-0.127253 0.356643,-0.127254 0.52867,-0.373277 0.167832,-0.246024 0.218182,-0.576881 0.04616,-0.330861 0.04616,-0.886534 0,-0.568398 0.07552,-0.8695649 0.07552,-0.3054084 0.260137,-0.4326618 0.18042,-0.1272534 0.524475,-0.1272534 V 7.3976671 q -0.31888,0 -0.507692,-0.1145281 -0.18881,-0.1187699 -0.272726,-0.390244 -0.08811,-0.271474 -0.08811,-0.7465536 0,-0.6405089 -0.03357,-0.9840933 Q 14.060139,4.8186639 13.904894,4.5514315 13.745453,4.2841995 13.380419,4.1442206 13.015385,4 12.386016,4 h -0.386015 v 1.1834573 q 0.377622,0 0.541258,0.055142 0.163637,0.055143 0.230769,0.2332986 0.06293,0.1781549 0.06293,0.5683987 0,0.542948 0.05455,0.9247085 0.05454,0.3817603 0.222378,0.6532344 0.167832,0.2672321 0.47832,0.3860019 -0.331468,0.1696714 -0.486712,0.3690351 -0.155244,0.195122 -0.20979,0.5090139 -0.05874,0.3138916 -0.05874,0.8865326 0,0.373276 -0.02518,0.568398 -0.02937,0.199365 -0.104891,0.301167 -0.07972,0.106048 -0.239159,0.144221 Q 12.302097,10.820789 12,10.820789 Z"
       id="path6"
       aria-label="{" />
  </g>
</svg>
